<svg width="33" height="40" viewBox="0 0 33 40" fill="none" xmlns="http://www.w3.org/2000/svg">
<path d="M27.0888 21.4944C27.0435 16.5793 31.2135 14.1881 31.4042 14.0768C29.0425 10.7172 25.3821 10.2582 24.0958 10.2216C21.0214 9.90589 18.0393 12.0165 16.4732 12.0165C14.8758 12.0165 12.4642 10.2521 9.86499 10.3039C6.52025 10.3542 3.3912 12.2437 1.67506 15.1778C-1.86661 21.1604 0.774795 29.952 4.16799 34.7878C5.86537 37.1561 7.84877 39.8005 10.4448 39.7074C12.9847 39.6053 13.9334 38.1275 16.9984 38.1275C20.0352 38.1275 20.9261 39.7074 23.5737 39.648C26.2995 39.6053 28.0157 37.269 29.6537 34.8793C31.6152 32.1648 32.4029 29.4915 32.4342 29.3542C32.3701 29.3329 27.1404 27.3854 27.0888 21.4944Z" fill="black"/>
<path d="M22.0874 7.04041C23.4534 5.37359 24.388 3.10591 24.1286 0.804688C22.1514 0.890087 19.6788 2.13906 18.255 3.76929C16.9952 5.20584 15.8699 7.56044 16.1606 9.77474C18.3816 9.93639 20.6619 8.68131 22.0874 7.04041Z" fill="black"/>
</svg>
