<svg width="19" height="16" viewBox="0 0 19 16" fill="none" xmlns="http://www.w3.org/2000/svg">
<path d="M16.0948 1.49062C14.8649 0.90375 13.5498 0.477236 12.175 0.234375C12.0061 0.545714 11.8088 0.964472 11.6728 1.29759C10.2113 1.07343 8.76323 1.07343 7.32858 1.29759C7.1926 0.964472 6.99086 0.545714 6.82049 0.234375C5.44414 0.477236 4.12756 0.905317 2.89765 1.49373C0.416926 5.3169 -0.255559 9.0451 0.080684 12.7204C1.72603 13.9735 3.32057 14.7347 4.88821 15.2328C5.27526 14.6896 5.62046 14.112 5.91785 13.5034C5.35147 13.2839 4.809 13.013 4.29643 12.6986C4.43242 12.5958 4.56543 12.4884 4.69393 12.3779C7.82024 13.8692 11.217 13.8692 14.306 12.3779C14.436 12.4884 14.569 12.5958 14.7035 12.6986C14.1894 13.0146 13.6455 13.2854 13.0791 13.5049C13.3765 14.112 13.7202 14.6911 14.1087 15.2344C15.6779 14.7362 17.2739 13.975 18.9192 12.7204C19.3138 8.4598 18.2453 4.76583 16.0948 1.49062ZM6.34376 10.4601C5.40528 10.4601 4.63565 9.56658 4.63565 8.47847C4.63565 7.39036 5.38884 6.49529 6.34376 6.49529C7.29871 6.49529 8.06832 7.3888 8.05188 8.47847C8.05337 9.56658 7.29871 10.4601 6.34376 10.4601ZM12.6562 10.4601C11.7177 10.4601 10.9481 9.56658 10.9481 8.47847C10.9481 7.39036 11.7012 6.49529 12.6562 6.49529C13.6111 6.49529 14.3807 7.3888 14.3643 8.47847C14.3643 9.56658 13.6111 10.4601 12.6562 10.4601Z" fill="white"/>
</svg>
