<svg width="20" height="21" viewBox="0 0 20 21" fill="none" xmlns="http://www.w3.org/2000/svg">
<g clip-path="url(#clip0_416_1023)">
<path d="M19.9804 6.20427C19.9336 5.1416 19.7617 4.41102 19.5156 3.77796C19.2616 3.10598 18.8709 2.50436 18.359 2.00423C17.8589 1.49632 17.2533 1.10165 16.5891 0.851665C15.9524 0.605493 15.2256 0.433646 14.163 0.386792C13.0923 0.33597 12.7525 0.324219 10.0371 0.324219C7.32172 0.324219 6.98185 0.33597 5.9152 0.382824C4.85253 0.429678 4.12195 0.601678 3.48904 0.847697C2.81692 1.10165 2.2153 1.49235 1.71517 2.00423C1.20726 2.50436 0.812742 3.10995 0.562602 3.77414C0.31643 4.41102 0.144583 5.13763 0.0977294 6.2003C0.0469078 7.27092 0.0351562 7.6108 0.0351562 10.3262C0.0351562 13.0415 0.0469078 13.3814 0.0937614 14.4481C0.140615 15.5107 0.312615 16.2413 0.558787 16.8744C0.812742 17.5464 1.20726 18.148 1.71517 18.6481C2.2153 19.156 2.82088 19.5507 3.48507 19.8007C4.12195 20.0469 4.84856 20.2187 5.91139 20.2656C6.97788 20.3126 7.31791 20.3242 10.0333 20.3242C12.7486 20.3242 13.0885 20.3126 14.1552 20.2656C15.2178 20.2187 15.9484 20.0469 16.5813 19.8007C17.9254 19.281 18.9881 18.2183 19.5078 16.8744C19.7538 16.2375 19.9258 15.5107 19.9726 14.4481C20.0195 13.3814 20.0312 13.0415 20.0312 10.3262C20.0312 7.6108 20.0273 7.27092 19.9804 6.20427ZM18.1794 14.3699C18.1364 15.3467 17.9723 15.8741 17.8355 16.2258C17.4995 17.0971 16.808 17.7886 15.9367 18.1246C15.585 18.2614 15.0538 18.4254 14.0808 18.4683C13.026 18.5153 12.7096 18.5269 10.0411 18.5269C7.37255 18.5269 7.0522 18.5153 6.00113 18.4683C5.02437 18.4254 4.49693 18.2614 4.1453 18.1246C3.71171 17.9644 3.31704 17.7104 2.9967 17.3783C2.6646 17.054 2.41065 16.6633 2.2504 16.2297C2.11365 15.8781 1.94959 15.3467 1.9067 14.3739C1.8597 13.319 1.8481 13.0025 1.8481 10.334C1.8481 7.66543 1.8597 7.34509 1.9067 6.29417C1.94959 5.31741 2.11365 4.78997 2.2504 4.43833C2.41065 4.00459 2.6646 3.61008 3.00067 3.28958C3.32483 2.95748 3.71553 2.70353 4.14927 2.54343C4.5009 2.40669 5.03231 2.24262 6.00509 2.19958C7.05999 2.15273 7.37651 2.14098 10.0449 2.14098C12.7174 2.14098 13.0337 2.15273 14.0848 2.19958C15.0616 2.24262 15.589 2.40669 15.9406 2.54343C16.3742 2.70353 16.7689 2.95748 17.0892 3.28958C17.4213 3.61389 17.6753 4.00459 17.8355 4.43833C17.9723 4.78997 18.1364 5.32123 18.1794 6.29417C18.2262 7.34906 18.238 7.66543 18.238 10.334C18.238 13.0025 18.2262 13.315 18.1794 14.3699Z" fill="white"/>
<path d="M10.0371 5.18848C7.20074 5.18848 4.89941 7.48965 4.89941 10.3262C4.89941 13.1628 7.20074 15.4639 10.0371 15.4639C12.8737 15.4639 15.1749 13.1628 15.1749 10.3262C15.1749 7.48965 12.8737 5.18848 10.0371 5.18848ZM10.0371 13.6589C8.19702 13.6589 6.70442 12.1665 6.70442 10.3262C6.70442 8.48593 8.19702 6.99349 10.0371 6.99349C11.8774 6.99349 13.3698 8.48593 13.3698 10.3262C13.3698 12.1665 11.8774 13.6589 10.0371 13.6589Z" fill="white"/>
<path d="M16.5777 4.98556C16.5777 5.64792 16.0407 6.18499 15.3781 6.18499C14.7158 6.18499 14.1787 5.64792 14.1787 4.98556C14.1787 4.32304 14.7158 3.78613 15.3781 3.78613C16.0407 3.78613 16.5777 4.32304 16.5777 4.98556Z" fill="white"/>
</g>
<defs>
<clipPath id="clip0_416_1023">
<rect width="20" height="20" fill="white" transform="translate(0 0.324219)"/>
</clipPath>
</defs>
</svg>
