<svg width="20" height="21" viewBox="0 0 20 21" fill="none" xmlns="http://www.w3.org/2000/svg">
<path fill-rule="evenodd" clip-rule="evenodd" d="M20 20.3242H16V13.3252C16 11.4052 15.153 10.334 13.634 10.334C11.981 10.334 11 11.4502 11 13.3252V20.3242H7V7.32422H11V8.78613C11 8.78613 12.255 6.58398 15.083 6.58398C17.912 6.58398 20 8.31032 20 11.8823V20.3242ZM2.442 5.24512C1.093 5.24512 0 4.14318 0 2.78418C0 1.42618 1.093 0.324219 2.442 0.324219C3.79 0.324219 4.883 1.42618 4.883 2.78418C4.884 4.14318 3.79 5.24512 2.442 5.24512ZM0 20.3242H5V7.32422H0V20.3242Z" fill="white"/>
</svg>
