<svg width="20" height="21" viewBox="0 0 20 21" fill="none" xmlns="http://www.w3.org/2000/svg">
<g clip-path="url(#clip0_416_1270)">
<path fill-rule="evenodd" clip-rule="evenodd" d="M11.1307 15.8643C10.743 15.9613 10.3504 15.999 9.97153 15.999C7.95548 15.999 5.54093 15.1121 5.54093 9.57617C5.54093 4.04219 8.06934 2.51318 10.0854 2.51318C12.1014 2.51318 14.4453 3.83023 14.4453 9.36621C14.4453 11.8752 13.9438 13.4703 13.2076 14.4673C13.1958 14.4683 13.187 14.4653 13.187 14.4653C11.5106 12.2613 9.33551 12.7893 8.81432 13.0293C8.81432 13.0293 8.88008 13.5341 9.01848 14.4531C10.1688 14.4521 10.7391 15.0602 11.1366 15.8452C11.1327 15.8542 11.1307 15.8643 11.1307 15.8643ZM14.409 16.9224C14.409 16.9224 14.411 16.9162 14.4129 16.9092C16.8628 15.3612 18.5 12.5382 18.5 9.15625C18.5 2.63928 14.358 0.324219 10.0275 0.324219C5.9414 0.324219 1.5 3.59527 1.5 9.28125C1.5 15.7982 5.64203 18.188 9.9735 18.188C10.6547 18.188 11.3162 18.1052 11.9513 17.9502C11.9513 17.9502 11.9611 17.9541 11.967 17.9551C13.6738 21.0611 16.216 20.3099 16.8717 20.0649C16.8717 20.0649 16.7833 19.518 16.6292 18.5C15.4033 18.468 14.8566 17.8414 14.409 16.9224Z" fill="white"/>
</g>
<defs>
<clipPath id="clip0_416_1270">
<rect width="20" height="20" fill="white" transform="translate(0 0.324219)"/>
</clipPath>
</defs>
</svg>
