<svg width="20" height="18" viewBox="0 0 20 18" fill="none" xmlns="http://www.w3.org/2000/svg">
<path fill-rule="evenodd" clip-rule="evenodd" d="M13.029 12.0718C12.267 12.0718 11.628 11.4461 11.628 10.6743C11.628 9.9015 12.267 9.25537 13.029 9.25537C13.79 9.25537 14.407 9.9015 14.407 10.6743C14.407 11.4461 13.791 12.0718 13.029 12.0718ZM13.223 14.6538C12.55 15.3354 11.495 15.667 9.999 15.667C8.502 15.667 7.448 15.3354 6.776 14.6538C6.63 14.5057 6.63 14.2663 6.776 14.1172C6.921 13.9691 7.158 13.9691 7.304 14.1172C7.829 14.6496 8.71 14.9092 9.999 14.9092C11.287 14.9092 12.169 14.6496 12.695 14.1172C12.84 13.9691 13.077 13.9691 13.223 14.1172C13.369 14.2663 13.369 14.5057 13.223 14.6538ZM5.592 10.6743C5.592 9.90251 6.23 9.25537 6.991 9.25537C7.752 9.25537 8.369 9.90251 8.369 10.6743C8.369 11.4461 7.752 12.0718 6.991 12.0718C6.23 12.0718 5.592 11.4461 5.592 10.6743ZM20 9.1377C20 7.87096 18.984 6.84033 17.735 6.84033C17.159 6.84033 16.616 7.05826 16.2 7.44873C14.705 6.46191 12.703 5.82404 10.486 5.73682L11.709 1.95117L14.921 2.71777C14.922 3.76037 15.758 4.60742 16.786 4.60742C17.814 4.60742 18.651 3.75842 18.651 2.71582C18.651 1.67322 17.814 0.824219 16.786 0.824219C16.016 0.824219 15.355 1.29863 15.07 1.9751C14.378 1.80978 11.904 1.21853 11.212 1.05322L9.702 5.729C7.401 5.77261 5.316 6.40733 3.765 7.41748C3.354 7.04729 2.822 6.84033 2.264 6.84033C1.016 6.84033 0 7.87096 0 9.1377C0 9.94196 0.414 10.679 1.076 11.0928C0.473 14.7054 4.67 17.8242 9.958 17.8242C15.224 17.8242 19.407 14.733 18.849 11.1387C19.557 10.736 20 9.98151 20 9.1377Z" fill="white"/>
</svg>
