<svg width="18" height="16" viewBox="0 0 18 16" fill="none" xmlns="http://www.w3.org/2000/svg">
<path fill-rule="evenodd" clip-rule="evenodd" d="M17.1998 2.3715C17.3599 1.40092 16.388 0.634313 15.4814 1.01604L1.23118 7.01617C0.237497 7.4345 0.18658 8.871 1.23189 9.30434C2.00529 9.62492 3.18893 10.095 4.37603 10.4864C5.34976 10.8074 6.41124 11.1054 7.2616 11.1898C7.49441 11.4683 7.78741 11.7358 8.08507 11.9805C8.54091 12.3554 9.08982 12.7422 9.65641 13.1124C10.7911 13.8538 12.0501 14.5633 12.8987 15.0242C13.9127 15.575 15.1267 14.9408 15.3091 13.8354L17.1998 2.3715ZM2.82936 8.15159L15.4325 2.845L13.6677 13.5453C12.8357 13.0928 11.6362 12.4151 10.5681 11.7173C10.0277 11.3641 9.53424 11.0144 9.14366 10.6933C9.00457 10.5788 8.88682 10.4747 8.78874 10.3814L12.0897 7.08042C12.4151 6.755 12.4151 6.22734 12.0897 5.90192C11.7642 5.57648 11.2366 5.57648 10.9112 5.90192L7.29596 9.51709C6.68476 9.43892 5.83272 9.21175 4.8979 8.90359C4.17846 8.66634 3.45511 8.39692 2.82936 8.15159Z" fill="white"/>
</svg>
