<svg width="18" height="20" viewBox="0 0 18 20" fill="none" xmlns="http://www.w3.org/2000/svg">
<path d="M9.41007 0.967773C10.4332 0.952148 11.4488 0.960273 12.4638 0.952148C12.4976 2.22152 13.0126 3.36402 13.8319 4.21027L13.8307 4.20902C14.7126 5.0034 15.8601 5.5184 17.1251 5.6059L17.1426 5.60715V8.75465C15.9476 8.72465 14.8238 8.44902 13.8107 7.97527L13.8619 7.99652C13.3719 7.7609 12.9576 7.51902 12.5638 7.24902L12.5963 7.27027C12.5888 9.5509 12.6038 11.8315 12.5807 14.104C12.5163 15.2622 12.1313 16.3184 11.5138 17.2003L11.5263 17.1809C10.4938 18.6597 8.82131 19.6303 6.91944 19.6878H6.91069C6.83381 19.6915 6.74319 19.6934 6.65194 19.6934C5.57069 19.6934 4.56007 19.3921 3.69882 18.869L3.72382 18.8834C2.15632 17.9403 1.07507 16.3265 0.875065 14.4496L0.872565 14.424C0.85694 14.0334 0.84944 13.6428 0.865065 13.2603C1.17132 10.2734 3.67382 7.96277 6.71569 7.96277C7.05757 7.96277 7.39257 7.99215 7.71819 8.04777L7.68319 8.04277C7.69881 9.1984 7.65194 10.3546 7.65194 11.5103C7.38757 11.4146 7.08257 11.359 6.76444 11.359C5.59694 11.359 4.60382 12.1053 4.23632 13.1472L4.23069 13.1659C4.14757 13.4328 4.09944 13.7396 4.09944 14.0571C4.09944 14.1859 4.10757 14.3134 4.12257 14.4384L4.12132 14.4234C4.32882 15.7022 5.42507 16.6672 6.74694 16.6672C6.78507 16.6672 6.82257 16.6665 6.86007 16.6646H6.85444C7.76882 16.6371 8.56257 16.1453 9.01132 15.4184L9.01756 15.4072C9.18444 15.1747 9.29881 14.8934 9.33694 14.5878L9.33757 14.579C9.41569 13.1809 9.38444 11.7909 9.39194 10.3928C9.39944 7.24527 9.38444 4.10527 9.40757 0.965898L9.41007 0.967773Z" fill="white"/>
</svg>
