<svg width="20" height="11" viewBox="0 0 20 11" fill="none" xmlns="http://www.w3.org/2000/svg">
<path d="M11.1741 5.53014C11.1741 8.4053 8.85917 10.7362 6.00346 10.7362C3.14777 10.7362 0.833008 8.40605 0.833008 5.53014C0.833008 2.65425 3.14794 0.324219 6.00346 0.324219C8.85901 0.324219 11.1741 2.65495 11.1741 5.53014ZM16.8463 5.53014C16.8463 8.2368 15.6888 10.4307 14.261 10.4307C12.8333 10.4307 11.6757 8.23605 11.6757 5.53014C11.6757 2.8242 12.8333 0.629544 14.261 0.629544C15.6888 0.629544 16.8463 2.8242 16.8463 5.53014ZM19.1663 5.53014C19.1663 7.95514 18.7592 9.92089 18.257 9.92089C17.7549 9.92089 17.3478 7.95447 17.3478 5.53014C17.3478 3.10582 17.7549 1.1394 18.2573 1.1394C18.7595 1.1394 19.1663 3.10529 19.1663 5.53014Z" fill="white"/>
</svg>
