<svg width="39" height="42" viewBox="0 0 39 42" fill="none" xmlns="http://www.w3.org/2000/svg">
<path d="M1.13693 1.8211C0.677812 2.29004 0.412109 3.02013 0.412109 3.96563V37.691C0.412109 38.6365 0.677812 39.3666 1.13693 39.8355L1.25025 39.9385L20.6193 21.0475V20.6015L1.25025 1.71054L1.13693 1.8211Z" fill="black"/>
<path d="M29.413 27.3477L22.9639 21.0475V20.6014L29.4209 14.3013L29.5654 14.3833L37.2122 18.6285C39.3945 19.8332 39.3945 21.8157 37.2122 23.0281L29.5654 27.2657L29.413 27.3477V27.3477Z" fill="black"/>
<path d="M28.3935 28.4391L21.7919 21.9979L2.30957 41.0089C3.03439 41.7523 4.21638 41.8419 5.56053 41.0985L28.3935 28.4391" fill="black"/>
<path d="M28.3935 13.2102L5.56053 0.550748C4.21638 -0.185065 3.03439 -0.0954734 2.30957 0.647964L21.7919 19.6514L28.3935 13.2102Z" fill="black"/>
</svg>
