<svg width="20" height="17" viewBox="0 0 20 17" fill="none" xmlns="http://www.w3.org/2000/svg">
<path d="M20 2.12297C19.2563 2.44922 18.4637 2.66547 17.6375 2.77047C18.4875 2.26297 19.1363 1.46547 19.4412 0.504219C18.6488 0.976719 17.7738 1.31047 16.8412 1.49672C16.0887 0.695469 15.0162 0.199219 13.8462 0.199219C11.5763 0.199219 9.74875 2.04172 9.74875 4.30047C9.74875 4.62547 9.77625 4.93797 9.84375 5.23547C6.435 5.06922 3.41875 3.43547 1.3925 0.946719C1.03875 1.56047 0.83125 2.26297 0.83125 3.01922C0.83125 4.43922 1.5625 5.69797 2.6525 6.42672C1.99375 6.41422 1.3475 6.22297 0.8 5.92172C0.8 5.93422 0.8 5.95047 0.8 5.96672C0.8 7.95922 2.22125 9.61422 4.085 9.99547C3.75125 10.0867 3.3875 10.1305 3.01 10.1305C2.7475 10.1305 2.4825 10.1155 2.23375 10.0605C2.765 11.6842 4.2725 12.878 6.065 12.9167C4.67 14.008 2.89875 14.6655 0.98125 14.6655C0.645 14.6655 0.3225 14.6505 0 14.6092C1.81625 15.7805 3.96875 16.4492 6.29 16.4492C13.835 16.4492 17.96 10.1992 17.96 4.78172C17.96 4.60047 17.9538 4.42547 17.945 4.25172C18.7588 3.67422 19.4425 2.95297 20 2.12297Z" fill="white"/>
</svg>
